# xmcd CD database file
#
# Track frame offsets:
#	150
#	18820
#	33400
#	47580
#	64238
#	77236
#	93249
#	110517
#	128144
#	144594
#	163275
#	180036
#	197913
#	214693
#	232190
#	245391
#	261799
#	275508
#	289781
#	302577
#
# Disc length: 4289 seconds
#
# Revision: 0
# Processed by: cddbd v1.5.2PL0 Copyright (c) Steve Scherf et al.
# Submitted via: CDex 1.50
#
DISCID=1b10bf14
DTITLE=Compilation - Las Grandes Sesiones De La Salsa 5 [CD4)
DYEAR=2006
DGENRE=Salsa
TTITLE0=Conexiòn Salsera/Tù Mi Recompensa
TTITLE1=Jimmy Saa/Mas De Mi Parte
TTITLE2=Bimbo G/Te Voy A Dar Todo
TTITLE3=Grupo Calle/A Que No Le Cuentas
TTITLE4=La Tropa/Lluvia Con Nieve
TTITLE5=Kim De Los Santos/Sin Experiencia
TTITLE6=Tito Rojas/Cuando Regrese
TTITLE7=Roberto Delgado/Con Esta Orquesta
TTITLE8=La Soluciòn/Nacarile De Oriente
TTITLE9=Nelson Manuel Y La Corte/La Prohibida
TTITLE10=Juicy and Eric/La Paga
TTITLE11=Pedro Bull/El Malo De La Pelicula
TTITLE12=Manolè/Cuèntale
TTITLE13=Miami's Band/Sorocotongo
TTITLE14=Pedro Morillo Y Su Banda Fuego/Pedrito
TTITLE15=Luilly Hernàndez/Que Te vaya Bien
TTITLE16=Ricky Castro and Banda Soberbia/Con El Baile
TTITLE17=Robin/Ven Devòrame Otra Vez
TTITLE18=Luis Vargas/Te Hice Olvidar
TTITLE19=Nande/Tanto La Queria
EXTD=YEAR: 2006
EXTT0=
EXTT1=
EXTT2=
EXTT3=
EXTT4=
EXTT5=
EXTT6=
EXTT7=
EXTT8=
EXTT9=
EXTT10=
EXTT11=
EXTT12=
EXTT13=
EXTT14=
EXTT15=
EXTT16=
EXTT17=
EXTT18=
EXTT19=
PLAYORDER=
